<svg id="Capa_1" data-name="Capa 1" xmlns="http://www.w3.org/2000/svg" viewBox="0 0 239.65 276.73"><defs><style>.cls-1{fill:#f0c808;}.cls-2{fill:#472889;}</style></defs><path class="cls-1" d="M2110.07,968.11l-119.83,69.18v138.37l119.83,69.18,119.82-69.18V1037.29Zm82.82,186.18-82.82,47.83-82.83-47.83v-95.64l82.83-47.82,82.82,47.82Z" transform="translate(-1990.24 -968.11)"/><path class="cls-2" d="M2110.07,1010.83l-82.83,47.82v95.64l82.83,47.83,82.82-47.83v-95.64Zm69.45,136.56-70.87,40.92-70.88-40.92v-81.84l70.88-40.92,70.87,40.92Z" transform="translate(-1990.24 -968.11)"/><path class="cls-1" d="M2108.65,1024.63l-70.88,40.92v81.84l70.88,40.92,70.87-40.92v-81.84ZM2139.58,1134a30.46,30.46,0,0,1-8.39,9.48,36.47,36.47,0,0,1-11.15,5.74,46.31,46.31,0,0,1-13.23,2.13,45.1,45.1,0,0,1-13.28-1.94,34,34,0,0,1-11.23-5.8,28.18,28.18,0,0,1-10.06-13.42l18.06-8.38a8,8,0,0,0,.9,3.22,12.41,12.41,0,0,0,2.84,3.74,16.65,16.65,0,0,0,5,3.1,19.84,19.84,0,0,0,7.61,1.29,20.71,20.71,0,0,0,6.39-.9,16.86,16.86,0,0,0,4.64-2.26,9.62,9.62,0,0,0,2.84-3.1,7.17,7.17,0,0,0,1-3.55,6.32,6.32,0,0,0-1.36-3.87,8.86,8.86,0,0,0-4.19-2.83,88.91,88.91,0,0,0-10.9-3,93.19,93.19,0,0,1-11.16-3.09,43.85,43.85,0,0,1-10.06-5,21.34,21.34,0,0,1-7.35-8.64,23,23,0,0,1-2.45-10.45,26.59,26.59,0,0,1,2.9-12,29,29,0,0,1,7.93-9.8,35.64,35.64,0,0,1,10.71-5.74,39,39,0,0,1,12.51-2,40.71,40.71,0,0,1,12.58,1.93,34.49,34.49,0,0,1,10.77,5.68,27.36,27.36,0,0,1,7.36,8.13l-14.71,10.06a20.75,20.75,0,0,0-6.77-6,18.47,18.47,0,0,0-9.1-2.26q-7,0-10.77,3.1a10,10,0,0,0-3.8,8.13,5.3,5.3,0,0,0,2.12,4.12,20.93,20.93,0,0,0,5.55,3.23,56.77,56.77,0,0,0,7.68,2.51l8.45,2.2q4.18,1.1,7.93,2.26a27,27,0,0,1,6.06,2.58,22.38,22.38,0,0,1,8.26,8.25,24.53,24.53,0,0,1-.13,23.16Z" transform="translate(-1990.24 -968.11)"/><path class="cls-2" d="M2142.55,1122.49a23.43,23.43,0,0,1-3,11.55,30.46,30.46,0,0,1-8.39,9.48,36.47,36.47,0,0,1-11.15,5.74,46.31,46.31,0,0,1-13.23,2.13,45.1,45.1,0,0,1-13.28-1.94,34,34,0,0,1-11.23-5.8,28.18,28.18,0,0,1-10.06-13.42l18.06-8.38a8,8,0,0,0,.9,3.22,12.41,12.41,0,0,0,2.84,3.74,16.65,16.65,0,0,0,5,3.1,19.84,19.84,0,0,0,7.61,1.29,20.71,20.71,0,0,0,6.39-.9,16.86,16.86,0,0,0,4.64-2.26,9.62,9.62,0,0,0,2.84-3.1,7.17,7.17,0,0,0,1-3.55,6.32,6.32,0,0,0-1.36-3.87,8.86,8.86,0,0,0-4.19-2.83,88.91,88.91,0,0,0-10.9-3,93.19,93.19,0,0,1-11.16-3.09,43.85,43.85,0,0,1-10.06-5,21.34,21.34,0,0,1-7.35-8.64,23,23,0,0,1-2.45-10.45,26.59,26.59,0,0,1,2.9-12,29,29,0,0,1,7.93-9.8,35.64,35.64,0,0,1,10.71-5.74,39,39,0,0,1,12.51-2,40.71,40.71,0,0,1,12.58,1.93,34.49,34.49,0,0,1,10.77,5.68,27.36,27.36,0,0,1,7.36,8.13l-14.71,10.06a20.75,20.75,0,0,0-6.77-6,18.47,18.47,0,0,0-9.1-2.26q-7,0-10.77,3.1a10,10,0,0,0-3.8,8.13,5.3,5.3,0,0,0,2.12,4.12,20.93,20.93,0,0,0,5.55,3.23,56.77,56.77,0,0,0,7.68,2.51l8.45,2.2q4.18,1.1,7.93,2.26a27,27,0,0,1,6.06,2.58,22.38,22.38,0,0,1,8.26,8.25A23.25,23.25,0,0,1,2142.55,1122.49Z" transform="translate(-1990.24 -968.11)"/></svg>