<svg id="Capa_1" data-name="Capa 1" xmlns="http://www.w3.org/2000/svg" viewBox="0 0 1457.76 568.14"><defs><style>.cls-1{fill:#fff;}.cls-2{fill:#f0c808;}</style></defs><path class="cls-1" d="M963.08,1379q17.46,10.41,26.62,26.63t9.15,37.44a75.56,75.56,0,0,1-9.57,37.23q-9.57,17.26-27,30.57a117.83,117.83,0,0,1-36,18.52,148.71,148.71,0,0,1-42.64,6.86,145.57,145.57,0,0,1-42.85-6.24,109.52,109.52,0,0,1-36.19-18.72q-23.72-17.88-32.45-43.26l58.24-27q0,4.15,2.91,10.4a39.71,39.71,0,0,0,9.16,12.06,53.43,53.43,0,0,0,16.22,10q10,4.17,24.54,4.16a66.32,66.32,0,0,0,20.6-2.91,53.54,53.54,0,0,0,15-7.28,31,31,0,0,0,9.15-10A23.33,23.33,0,0,0,931,1446a20.45,20.45,0,0,0-4.36-12.48q-4.38-5.82-13.52-9.15a290.94,290.94,0,0,0-35.16-9.78,305.24,305.24,0,0,1-36-10,141.3,141.3,0,0,1-32.45-16q-15-10-23.71-27.87A74.32,74.32,0,0,1,778,1327a85.53,85.53,0,0,1,9.36-38.69,93,93,0,0,1,25.58-31.61,115.1,115.1,0,0,1,34.53-18.51,125.46,125.46,0,0,1,40.35-6.45,131.33,131.33,0,0,1,40.56,6.24,111.18,111.18,0,0,1,34.74,18.3,88.55,88.55,0,0,1,23.71,26.21l-47.43,32.45a66.56,66.56,0,0,0-21.84-19.35,59.36,59.36,0,0,0-29.32-7.28q-22.47,0-34.74,10t-12.27,26.21q0,7.49,6.86,13.31a67.71,67.71,0,0,0,17.89,10.4,184.37,184.37,0,0,0,24.75,8.11q13.72,3.54,27.25,7.07t25.58,7.28A88.18,88.18,0,0,1,963.08,1379Z" transform="translate(-772.13 -968.1)"/><path class="cls-1" d="M1124.33,1318.67q23.3,0,42.43,9.36a107.54,107.54,0,0,1,32.86,24.55,109.17,109.17,0,0,1,21.22,34.94,113.63,113.63,0,0,1,7.49,40.56,116.32,116.32,0,0,1-3.33,26.62H1077.74q8.31,14.16,23.71,23.92a60.89,60.89,0,0,0,33.28,9.78,150.61,150.61,0,0,0,31.41-2.91,177.58,177.58,0,0,0,25.58-7.49l19.14,35.36A119.15,119.15,0,0,1,1175.7,1530a148.7,148.7,0,0,1-42.22,5.82,121.6,121.6,0,0,1-45.76-8.52,120,120,0,0,1-37-23.09,106.79,106.79,0,0,1-25-34.53,100.52,100.52,0,0,1-9.16-42.43,107.78,107.78,0,0,1,31.41-76.34,113.49,113.49,0,0,1,34.32-23.5A101.74,101.74,0,0,1,1124.33,1318.67Zm47,91.52q-5-17.88-17.89-29.12t-29.12-11.23q-16.65,0-30.16,11.23a56.56,56.56,0,0,0-18.51,29.12Z" transform="translate(-772.13 -968.1)"/><path class="cls-1" d="M1308.1,1353.2a92.55,92.55,0,0,1,9.57-12.69,62,62,0,0,1,12.9-10.81,68.43,68.43,0,0,1,17-7.7,74.31,74.31,0,0,1,21.64-2.91q14.13,0,32.86,5l-5.41,51.17q-4.57-.84-9.15-2.08-3.75-.83-8.32-1.46a63.19,63.19,0,0,0-8.32-.62,79.25,79.25,0,0,0-24.75,3.74,62.43,62.43,0,0,0-19.76,10.4,51,51,0,0,0-13.31,16,42.21,42.21,0,0,0-5,20.17v109.41h-57.4V1324.5h52Z" transform="translate(-772.13 -968.1)"/><path class="cls-1" d="M1534.51,1410.19l86.94,120.64h-68.64l-54.49-82.37-20.39,22v60.32h-57.41V1227.15h57.41v168.48l67-71.13h69.89Z" transform="translate(-772.13 -968.1)"/><path class="cls-1" d="M1719.52,1318.67q23.3,0,42.43,9.36a107.7,107.7,0,0,1,32.87,24.55,109.33,109.33,0,0,1,21.21,34.94,113.63,113.63,0,0,1,7.49,40.56,116.32,116.32,0,0,1-3.33,26.62H1672.93q8.31,14.16,23.71,23.92a60.89,60.89,0,0,0,33.28,9.78,150.61,150.61,0,0,0,31.41-2.91,177.58,177.58,0,0,0,25.58-7.49l19.14,35.36A119.21,119.21,0,0,1,1770.9,1530a148.82,148.82,0,0,1-42.23,5.82,121.64,121.64,0,0,1-45.76-8.52,120.14,120.14,0,0,1-37-23.09,106.94,106.94,0,0,1-25-34.53,100.51,100.51,0,0,1-9.15-42.43,107.83,107.83,0,0,1,31.4-76.34,113.49,113.49,0,0,1,34.32-23.5A101.74,101.74,0,0,1,1719.52,1318.67Zm47,91.52q-5-17.88-17.89-29.12t-29.12-11.23q-16.63,0-30.16,11.23a56.68,56.68,0,0,0-18.51,29.12Z" transform="translate(-772.13 -968.1)"/><path class="cls-1" d="M1952.47,1324.5a113.2,113.2,0,0,1,25.71,3.32,73,73,0,0,1,26.54,12.48q12.43,9.17,20.94,25.38t8.51,42v123.13h-57.41V1410.1q0-9.54-3.12-16.18a27.94,27.94,0,0,0-8.32-10.58,35.29,35.29,0,0,0-11.86-5.81,49.32,49.32,0,0,0-13.31-1.87,43.09,43.09,0,0,0-11.86,1.87,37.91,37.91,0,0,0-12.06,6,34,34,0,0,0-9.36,10.79,31.52,31.52,0,0,0-3.75,15.76v120.73h-57.4V1324.5h49.08l8.32,15.8a90.17,90.17,0,0,1,22.4-11.44A80.81,80.81,0,0,1,1952.47,1324.5Z" transform="translate(-772.13 -968.1)"/><path class="cls-1" d="M2191.5,1422.67q22.88,16.23,22.88,46.18a53.88,53.88,0,0,1-6.45,25.79,69.42,69.42,0,0,1-17.68,21.22,85.47,85.47,0,0,1-26.21,14.35,97.13,97.13,0,0,1-32,5.2,95.67,95.67,0,0,1-25.17-3.33,99.15,99.15,0,0,1-22.67-9.15,75.52,75.52,0,0,1-18.1-13.94,53.45,53.45,0,0,1-11.44-18.09q9.57-4.58,21.22-10.2t20.38-10.19q3.75,6.24,11.65,11.44t21.64,5.2q14.13,0,20.79-6.65T2157,1468q0-4.15-4.58-7.7a37.67,37.67,0,0,0-10.4-5.62q-8.32-3.32-13.72-3.53a51.94,51.94,0,0,1-12.48-2.29q-22.47-5.4-34.32-14.35t-17.27-18.1q-5.4-9.15-6-17.47t-.62-13.31a57.6,57.6,0,0,1,5.82-25.38,65.72,65.72,0,0,1,16-21,81.46,81.46,0,0,1,23.71-14.35,77.21,77.21,0,0,1,28.91-5.41,80,80,0,0,1,45.76,14.15,71.16,71.16,0,0,1,16.43,15.81,63.84,63.84,0,0,1,10.19,20.38l-44.51,15c-1.66-5-5.06-9-10.19-12.07a31.62,31.62,0,0,0-16.43-4.57c-5.82,0-10.55,1.94-14.14,5.82s-5.41,7.77-5.41,11.65a13,13,0,0,0,5.2,11,32.51,32.51,0,0,0,11.44,5.62c3,.56,6,1,8.94,1.45s5.75.91,8.53,1.46a179.8,179.8,0,0,1,25.17,7.49A80.72,80.72,0,0,1,2191.5,1422.67Z" transform="translate(-772.13 -968.1)"/><path class="cls-2" d="M2110.07,1010.83l82.82,47.82v95.64l-82.82,47.82-82.83-47.82v-95.64l82.83-47.82m0-42.73-119.83,69.19v138.36l119.83,69.18,119.82-69.18V1037.29L2110.07,968.1Z" transform="translate(-772.13 -968.1)"/><path class="cls-2" d="M2108.65,1024.63l-70.88,40.92v81.84l70.88,40.92,70.87-40.92v-81.84Zm30.93,109.4a30.46,30.46,0,0,1-8.39,9.48,36.25,36.25,0,0,1-11.15,5.74,45.63,45.63,0,0,1-13.23,2.13,45.09,45.09,0,0,1-13.28-1.93,34,34,0,0,1-11.23-5.81,28.15,28.15,0,0,1-10.06-13.41l18.06-8.39a8.06,8.06,0,0,0,.9,3.23,12.53,12.53,0,0,0,2.84,3.74,16.64,16.64,0,0,0,5,3.09,19.84,19.84,0,0,0,7.61,1.29,20.71,20.71,0,0,0,6.39-.9,16.31,16.31,0,0,0,4.64-2.26,9.5,9.5,0,0,0,2.84-3.09,7.2,7.2,0,0,0,1-3.55,6.32,6.32,0,0,0-1.36-3.87,8.87,8.87,0,0,0-4.19-2.84,90.72,90.72,0,0,0-10.9-3,95.13,95.13,0,0,1-11.16-3.1,43.82,43.82,0,0,1-10.06-5,21.44,21.44,0,0,1-7.35-8.65,22.93,22.93,0,0,1-2.45-10.44,26.59,26.59,0,0,1,2.9-12,29,29,0,0,1,7.93-9.81,35.87,35.87,0,0,1,10.71-5.74,39,39,0,0,1,12.51-2,40.72,40.72,0,0,1,12.58,1.94,34.29,34.29,0,0,1,10.77,5.68,27.45,27.45,0,0,1,7.36,8.12l-14.71,10.06a20.61,20.61,0,0,0-6.77-6,18.36,18.36,0,0,0-9.1-2.26q-7,0-10.77,3.09a10,10,0,0,0-3.8,8.13,5.3,5.3,0,0,0,2.12,4.13,20.92,20.92,0,0,0,5.55,3.22,56.73,56.73,0,0,0,7.68,2.52l8.45,2.19c2.79.73,5.43,1.49,7.93,2.26a27.43,27.43,0,0,1,6.06,2.58,22.33,22.33,0,0,1,8.26,8.26,24.51,24.51,0,0,1-.13,23.15Z" transform="translate(-772.13 -968.1)"/></svg>